<?xml version="1.0" encoding="utf-8"?><svg viewBox="0 0 242 522" xmlns="http://www.w3.org/2000/svg" xmlns:xlink="http://www.w3.org/1999/xlink"><style>:root>svg{display:none}:root>svg:target{display:block}</style><svg viewBox="0 0 7 4" id="angle" xmlns="http://www.w3.org/2000/svg"><path d="M6.92 3.69a.273.273 0 01-.387 0L3.693.856a.274.274 0 00-.387 0L.466 3.69a.273.273 0 01-.386-.387L2.92.47a.818.818 0 011.16 0l2.84 2.833a.273.273 0 010 .387z"/></svg><svg viewBox="0 0 20 19" id="cart" xmlns="http://www.w3.org/2000/svg"><path d="M20 6.579h-3.396L13.036.319a.608.608 0 00-.858-.225.678.678 0 00-.214.902l3.182 5.583H4.854L8.036.996a.678.678 0 00-.214-.902.608.608 0 00-.858.225L3.396 6.58H0v1.316h1.357l1.587 8.915c.166.934.941 1.611 1.844 1.611h10.424c.902 0 1.678-.677 1.843-1.61l1.588-8.916H20V6.579zm-4.174 9.99a.634.634 0 01-.614.536H4.788c-.301 0-.56-.225-.615-.537L2.628 7.895h14.744l-1.546 8.674z"/></svg><svg fill="none" viewBox="0 0 26 20" id="eye" xmlns="http://www.w3.org/2000/svg"><path clip-rule="evenodd" d="M16.952 10.066a3.952 3.952 0 11-7.904-.001 3.952 3.952 0 017.904.001z" stroke="#fff" stroke-width="1.5" stroke-linecap="round" stroke-linejoin="round"/><path clip-rule="evenodd" d="M12.998 19.194c4.76 0 9.113-3.423 11.565-9.128C22.11 4.361 17.758.94 12.998.94h.005c-4.76 0-9.114 3.422-11.566 9.127 2.452 5.705 6.805 9.128 11.566 9.128h-.005z" stroke="#fff" stroke-width="1.5" stroke-linecap="round" stroke-linejoin="round"/></svg><svg fill="none" viewBox="0 0 211 419" id="phone" xmlns="http://www.w3.org/2000/svg"><path fill-rule="evenodd" clip-rule="evenodd" d="M206.56 96.367h.48c.53 0 .96.43.96.958v45.986a.96.96 0 01-.96.958h-.48V96.367zM3 125.108a.96.96 0 01.96-.958h.48v30.179h-.48a.96.96 0 01-.96-.958v-28.263zM3 87.266c0-.53.43-.958.96-.958h.48v30.178h-.48a.96.96 0 01-.96-.958V87.266zM3 58.045c0-.529.43-.958.96-.958h.48v15.808h-.48a.96.96 0 01-.96-.958V58.045z" fill="#121515"/><g filter="url(#dfilter0_dd)"><path fill-rule="evenodd" clip-rule="evenodd" d="M4.44 32.178C4.44 15.511 17.982 2 34.686 2h141.628c16.704 0 30.246 13.511 30.246 30.178v350.644c0 16.667-13.542 30.178-30.246 30.178H34.686C17.982 413 4.44 399.489 4.44 382.822V32.178z" fill="#3A4245"/></g><path fill-rule="evenodd" clip-rule="evenodd" d="M6.84 32.178c0-15.344 12.468-27.783 27.846-27.783h141.628c15.379 0 27.845 12.44 27.845 27.783v350.644c0 15.344-12.466 27.783-27.845 27.783H34.686c-15.378 0-27.845-12.439-27.845-27.783V32.178z" fill="#121515"/><path fill-rule="evenodd" clip-rule="evenodd" d="M127.344 21.16a3.837 3.837 0 003.841-3.831 3.837 3.837 0 00-3.841-3.833 3.837 3.837 0 00-3.841 3.833 3.837 3.837 0 003.841 3.832z" fill="#262C2D"/><path fill-rule="evenodd" clip-rule="evenodd" d="M127.344 19.724a2.398 2.398 0 002.401-2.395 2.398 2.398 0 00-2.401-2.395 2.398 2.398 0 00-2.4 2.395 2.398 2.398 0 002.4 2.395z" fill="#121515"/><path opacity=".4" fill-rule="evenodd" clip-rule="evenodd" d="M127.344 16.85a.48.48 0 100-.96.48.48 0 000 .96z" fill="#636F73"/><path fill-rule="evenodd" clip-rule="evenodd" d="M93.258 17.329c0-.794.643-1.437 1.437-1.437h21.611a1.437 1.437 0 010 2.874H94.695a1.437 1.437 0 01-1.437-1.437z" fill="#262C2D"/><mask id="da" maskUnits="userSpaceOnUse" x="15" y="13" width="181" height="389"><path fill-rule="evenodd" clip-rule="evenodd" d="M66.372 27.388h78.256c6.363 0 11.522-5.147 11.522-12.095a2.403 2.403 0 012.277-2.272l18.847-.004c10.076 0 18.244 8.15 18.244 18.203v352.56c0 10.053-8.168 18.202-18.244 18.202H33.726c-10.076 0-18.244-8.149-18.244-18.202V31.22c0-10.053 8.168-18.203 18.244-18.203H52.57a2.404 2.404 0 012.277 2.273c.003 6.95 5.162 12.098 11.525 12.098z" fill="#fff"/></mask><g mask="url(#da)"><path fill-rule="evenodd" clip-rule="evenodd" d="M15.482 13.018h180.036v388.964H15.482V13.017z" fill="#000"/></g><defs><filter id="dfilter0_dd" x=".44" y="0" width="210.119" height="419" filterUnits="userSpaceOnUse" color-interpolation-filters="sRGB"><feFlood flood-opacity="0" result="BackgroundImageFix"/><feColorMatrix in="SourceAlpha" values="0 0 0 0 0 0 0 0 0 0 0 0 0 0 0 0 0 0 127 0"/><feOffset/><feGaussianBlur stdDeviation="1"/><feColorMatrix values="0 0 0 0 0 0 0 0 0 0.0823529 0 0 0 0 0.25098 0 0 0 0.14 0"/><feBlend in2="BackgroundImageFix" result="effect1_dropShadow"/><feColorMatrix in="SourceAlpha" values="0 0 0 0 0 0 0 0 0 0 0 0 0 0 0 0 0 0 127 0"/><feOffset dy="2"/><feGaussianBlur stdDeviation="2"/><feColorMatrix values="0 0 0 0 0 0 0 0 0 0.0823529 0 0 0 0 0.25098 0 0 0 0.05 0"/><feBlend in2="effect1_dropShadow" result="effect2_dropShadow"/><feBlend in="SourceGraphic" in2="effect2_dropShadow" result="shape"/></filter></defs></svg><svg fill="none" viewBox="0 0 242 522" id="phone-send" xmlns="http://www.w3.org/2000/svg"><mask id="ea" maskUnits="userSpaceOnUse" x="0" y="0" width="242" height="522"><path fill-rule="evenodd" clip-rule="evenodd" d="M68.267 19.266h104.977c8.536 0 15.456-6.9 15.456-16.216a3.224 3.224 0 013.055-3.046L217.037 0c13.517 0 24.473 10.926 24.473 24.403v472.653c0 13.478-10.956 24.403-24.473 24.403H24.473C10.957 521.459 0 510.534 0 497.056V24.403C0 10.926 10.957 0 24.473 0h25.278a3.223 3.223 0 013.055 3.046c.004 9.32 6.925 16.22 15.461 16.22z" fill="#fff"/></mask><g mask="url(#ea)"><path fill-rule="evenodd" clip-rule="evenodd" d="M0 0h241.51v521.459H0V0z" fill="#FFDCB3"/></g></svg><svg fill="none" viewBox="0 0 6 11" id="tooltip" xmlns="http://www.w3.org/2000/svg"><path d="M3.78 7.59H2.184a4.132 4.132 0 01.14-1.317 2.85 2.85 0 01.476-.938c.205-.252.41-.48.616-.686.205-.205.401-.43.588-.672.196-.252.327-.513.392-.784.075-.55-.037-.98-.336-1.288-.299-.317-.69-.476-1.176-.476-.364 0-.695.122-.994.364a1.456 1.456 0 00-.532.966H0C.037 1.854.313 1.168.826.701c.523-.466 1.204-.7 2.044-.7.775-.018 1.451.173 2.03.574.588.402.938.929 1.05 1.582.056.355.065.663.028.924a2.356 2.356 0 01-.322.952c-.168.29-.36.546-.574.77-.205.224-.41.462-.616.714A3.115 3.115 0 003.78 7.59zM3.626 9.8a.9.9 0 01-.644.238c-.261 0-.485-.08-.672-.238a.788.788 0 01-.266-.616c0-.252.089-.457.266-.616.187-.158.41-.238.672-.238a.9.9 0 01.644.238.788.788 0 01.266.616.788.788 0 01-.266.616z" fill="#444B58"/></svg><svg fill="none" viewBox="0 0 20 20" id="trash" xmlns="http://www.w3.org/2000/svg"><path d="M18.572 2.857h-5v-.714C13.572.959 12.611 0 11.428 0H8.572C7.388 0 6.429.96 6.429 2.143v.714h-5a.714.714 0 100 1.429h.776L3.572 19.35c.033.369.343.65.714.649h11.428c.37.002.681-.28.715-.65l1.366-15.064h.776a.714.714 0 100-1.429zM7.857 2.143c0-.395.32-.714.715-.714h2.857c.394 0 .714.32.714.714v.714H7.857v-.714zm7.205 16.428H4.938L3.643 4.286H16.36L15.062 18.57z" fill="#4D4D4D" fill-opacity=".3"/><path d="M7.857 16.381v-.003l-.714-10a.716.716 0 00-1.429.101l.715 10a.714.714 0 00.714.664h.051a.714.714 0 00.663-.762zM10 5.714a.714.714 0 00-.714.715v10a.714.714 0 101.428 0v-10A.714.714 0 0010 5.714zM13.622 5.714a.716.716 0 00-.765.664l-.714 10a.714.714 0 00.66.764H12.856c.376.002.688-.288.715-.663l.715-10a.716.716 0 00-.664-.765z" fill="#4D4D4D" fill-opacity=".3"/></svg></svg>