<svg width="6" height="11" viewBox="0 0 6 11" fill="none" xmlns="http://www.w3.org/2000/svg">
<path d="M3.78 7.58925H2.184C2.16533 7.09458 2.212 6.65591 2.324 6.27324C2.44533 5.89058 2.604 5.57791 2.8 5.33525C3.00533 5.08325 3.21067 4.85458 3.416 4.64925C3.62133 4.44391 3.81733 4.21991 4.004 3.97725C4.2 3.72524 4.33067 3.46391 4.396 3.19325C4.47067 2.64258 4.35867 2.21325 4.06 1.90525C3.76133 1.58791 3.36933 1.42924 2.884 1.42924C2.52 1.42924 2.18867 1.55058 1.89 1.79324C1.59133 2.03591 1.414 2.35791 1.358 2.75924H0C0.0373333 1.85391 0.312667 1.16791 0.826 0.701245C1.34867 0.234578 2.03 0.00124441 2.87 0.00124441C3.64467 -0.017422 4.32133 0.173912 4.9 0.575245C5.488 0.976578 5.838 1.50391 5.95 2.15724C6.006 2.51191 6.01533 2.81991 5.978 3.08124C5.94067 3.41724 5.83333 3.73458 5.656 4.03325C5.488 4.32258 5.29667 4.57924 5.082 4.80324C4.87667 5.02724 4.67133 5.26525 4.466 5.51725C4.26067 5.75991 4.09267 6.05858 3.962 6.41325C3.83133 6.75858 3.77067 7.15058 3.78 7.58925ZM3.626 9.80125C3.458 9.95991 3.24333 10.0392 2.982 10.0392C2.72067 10.0392 2.49667 9.95991 2.31 9.80125C2.13267 9.64258 2.044 9.43725 2.044 9.18525C2.044 8.93325 2.13267 8.72791 2.31 8.56925C2.49667 8.41058 2.72067 8.33125 2.982 8.33125C3.24333 8.33125 3.458 8.41058 3.626 8.56925C3.80333 8.72791 3.892 8.93325 3.892 9.18525C3.892 9.43725 3.80333 9.64258 3.626 9.80125Z" fill="#444B58"/>
</svg>
